# xmcd
# Track frame offsets:
# 150
# 24701
# 40598
# 56472
# 70890
# 87044
# 110496
# 134383
# 145823
# 165596
# 172336
# 187836
# 205316
# 219407
#
# Disc length: 3092 seconds
# Revision: 0
# Processed by: cddbd v1.4PL0 Copyright (c) Steve Scherf et al.
# Submitted via: VisiTrax 2.9.5.181 - For more info visit www.synapsa.com
#
DISCID=c40c120e
DTITLE=Eric Bibb - Roadworks
DYEAR=1900
DGENRE=Country Blues
TTITLE0=Tell ol' Bill
TTITLE1=New Automobile
TTITLE2=Sugar Mama
TTITLE3=Candy Man
TTITLE4=Panama Hat
TTITLE5=Goin' Down Slow
TTITLE6=For You
TTITLE7=Gonna Walk This Road
TTITLE8=I Want Jesus To Walk With Me
TTITLE9=Sebastian's Tune
TTITLE10=Shavin' Talk
TTITLE11=Saucer 'n' Cup
TTITLE12=Gratitude
TTITLE13=Lazy Afternoon
EXTD=
EXTT0=
EXTT1=
EXTT2=
EXTT3=
EXTT4=
EXTT5=
EXTT6=
EXTT7=
EXTT8=
EXTT9=
EXTT10=
EXTT11=
EXTT12=
EXTT13=
PLAYORDER=
